<svg width="150" height="106" xmlns="http://www.w3.org/2000/svg">
 <!-- Created with Method Draw - http://github.com/duopixel/Method-Draw/ -->

 <g>
  <title>background</title>
  <rect fill="#fff" id="canvas_background" height="602" width="802" y="-1" x="-1"/>
  <g display="none" overflow="visible" y="0" x="0" height="100%" width="100%" id="canvasGrid">
   <rect fill="url(#gridpattern)" stroke-width="0" y="0" x="0" height="100%" width="100%"/>
  </g>
 </g>
 <g>
  <title>Layer 1</title>
  <metadata>Created by potrace 1.15, written by Peter Selinger 2001-2017</metadata>
  <g id="svg_10">
   <g id="svg_4" fill="#a3a3a3" transform="matrix(0.025, 0, 0, -0.025, 0, 158)">
    <path id="svg_5" fill=" #ECC9B1" d="m2151,6273.33301c-194,-52 -458,-263 -650,-517c-90,-120 -265,-393 -302,-472c-71,-148 -24,-244 184,-379c291,-190 592,-266 958,-245c139,8 159,12 208,36c95,48 117,118 128,403c8,241 -19,573 -68,815c-59,290 -226,422 -458,359z"/>
    <path id="svg_6" fill=" #ECC9B1" d="m3864,6231.33301c-120,-57 -213,-229 -304,-559c-70,-257 -120,-559 -120,-729c0,-161 56,-267 167,-317c83,-37 162,-47 381,-47c280,0 384,25 684,161c187,85 243,150 242,284c0,100 -23,165 -134,390c-110,222 -187,349 -311,515c-95,127 -198,214 -329,277c-63,31 -87,37 -155,40c-63,3 -89,0 -121,-15z"/>
    <path id="svg_7" fill=" #AC8A75" d="m2810,4503.33301c-99,-8 -198,-27 -260,-51c-131,-49 -335,-196 -394,-285c-51,-75 -63,-138 -42,-228c18,-82 106,-264 173,-357c99,-140 246,-273 408,-367c136,-80 177,-91 275,-75c198,32 499,197 671,369c72,71 94,101 129,175c91,190 110,284 76,367c-36,86 -176,218 -310,293c-112,62 -270,124 -357,139c-88,15 -293,26 -369,20z"/>
    <path id="svg_8" fill=" #DBB69B" d="m147,3622.33301c-31,-97 -43,-148 -77,-342c-26,-144 -3,-287 69,-425c113,-218 386,-428 626,-482c115,-26 328,-13 420,26c37,16 58,24 114,45c25,9 56,24 70,34c14,9 39,23 56,31c16,8 54,32 83,52l54,37l-44,22c-36,18 -162,92 -243,142c-196,121 -463,309 -583,409c-217,182 -424,408 -476,521c-9,20 -21,37 -25,37c-5,0 -24,-48 -44,-107z"/>
    <path id="svg_9" fill=" #DBB69B" d="m5785,3395.33301c-72,-104 -325,-372 -422,-446c-25,-19 -51,-40 -58,-47c-60,-56 -303,-220 -390,-263c-16,-8 -46,-24 -65,-35c-19,-12 -66,-34 -105,-50c-38,-15 -74,-31 -80,-35c-5,-4 -50,-19 -100,-34c-49,-15 -98,-32 -107,-37c-10,-5 -25,-9 -33,-9c-25,0 -17,-13 43,-71c98,-96 262,-195 362,-221c140,-35 269,-45 380,-28c145,22 172,29 285,81c153,69 329,252 385,399c7,19 17,40 22,47c13,17 27,68 44,163c16,88 16,85 -17,275c-6,33 -15,71 -20,84c-6,13 -23,75 -39,138c-40,156 -39,155 -85,89z"/>
   </g>
  </g>
 </g>
</svg>